<?xml version="1.0" standalone="no"?>
<!DOCTYPE svg PUBLIC "-//W3C//DTD SVG 20010904//EN"
 "http://www.w3.org/TR/2001/REC-SVG-20010904/DTD/svg10.dtd">
<svg version="1.0" xmlns="http://www.w3.org/2000/svg"
 width="652.000000pt" height="652.000000pt" viewBox="0 0 652.000000 652.000000"
 preserveAspectRatio="xMidYMid meet">
<metadata>
Created by potrace 1.14, written by Peter Selinger 2001-2017
</metadata>
<g transform="translate(0.000000,652.000000) scale(0.100000,-0.100000)"
fill="#000000" stroke="none">
<path d="M2274 5105 c-89 -19 -156 -56 -187 -104 -60 -91 -58 -7 -55 -1782 l3
-1624 28 -57 c41 -83 112 -129 230 -148 37 -6 321 -10 697 -10 531 0 645 3
699 15 128 31 210 96 253 204 23 55 23 61 26 617 l3 561 107 22 c131 28 266
70 366 116 310 141 515 417 583 785 14 72 18 145 17 305 0 195 -2 217 -27 308
-99 370 -369 612 -812 731 -256 69 -360 76 -1170 75 -542 0 -714 -4 -761 -14z
m1804 -381 c239 -49 434 -185 524 -365 55 -111 69 -175 75 -344 11 -307 -63
-517 -239 -681 -99 -93 -280 -178 -421 -199 l-47 -7 0 806 c0 720 2 806 15
806 9 0 51 -7 93 -16z"/>
</g>
</svg>
